# xmcd
#
# Track frame offsets:
#       150
#       11881
#       24637
#       34168
#       47149
#       59605
#       76111
#       89542
#       102073
#       112054
#       122110
#       141841
#       156472
#       175003
#       187909
#
# Disc length: 2682 seconds
#
# Revision: 1
# Processed by: cddbd v1.4PL0 Copyright (c) Steve Scherf et al.
# Submitted via: MusiCat 1.1
#
DISCID=ca0a780f
DTITLE=The Double B Skiffle Group - The Sunny Side of Life
DYEAR=1900
DGENRE=
TTITLE0=Yonder comes a sucker
TTITLE1=Please don't  bury me
TTITLE2=Does your chewing gum loose it's  flavour
TTITLE3=Big Spike Hammer
TTITLE4=A walk in the Irish rain
TTITLE5=Bright blue rose
TTITLE6=City of New Orleans
TTITLE7=Picture Puzzle
TTITLE8=Swimming Song
TTITLE9=Will Ye Go Lassie
TTITLE10=Muleskinner Blues
TTITLE11=Keep on the sunny side
TTITLE12=Wayfaring Stranger
TTITLE13=Foolish You
TTITLE14=Wabash Cannonball
EXTD=0\n\n\nsubmitted by Stamppot
EXTT0=
EXTT1=
EXTT2=
EXTT3=
EXTT4=
EXTT5=
EXTT6=
EXTT7=
EXTT8=
EXTT9=
EXTT10=
EXTT11=
EXTT12=
EXTT13=
EXTT14=
PLAYORDER=
